<mxfile host="app.diagrams.net" modified="2021-11-12T05:15:15.290Z" agent="5.0 (Windows NT 10.0; Win64; x64) AppleWebKit/537.36 (KHTML, like Gecko) Chrome/95.0.4638.69 Safari/537.36" etag="3wgDWEsjTrrOlTTYZYOF" version="15.7.0" type="github">
  <diagram id="kgpKYQtTHZ0yAKxKKP6v" name="Page-1">
    <mxGraphModel dx="981" dy="553" grid="1" gridSize="10" guides="1" tooltips="1" connect="1" arrows="1" fold="1" page="1" pageScale="1" pageWidth="2339" pageHeight="3300" math="0" shadow="0">
      <root>
        <mxCell id="0" />
        <mxCell id="1" parent="0" />
        <mxCell id="FGZw0jKBI7hrl-vJfX9z-1" value="Server" style="shape=umlLifeline;perimeter=lifelinePerimeter;container=1;collapsible=0;recursiveResize=0;rounded=0;shadow=0;strokeWidth=1;labelBackgroundColor=none;fillColor=#fff2cc;strokeColor=#d6b656;" vertex="1" parent="1">
          <mxGeometry x="259" y="80" width="100" height="280" as="geometry" />
        </mxCell>
        <mxCell id="FGZw0jKBI7hrl-vJfX9z-2" value="" style="points=[];perimeter=orthogonalPerimeter;rounded=0;shadow=0;strokeWidth=1;fillColor=#fff2cc;strokeColor=#d6b656;" vertex="1" parent="FGZw0jKBI7hrl-vJfX9z-1">
          <mxGeometry x="45" y="110" width="10" height="130" as="geometry" />
        </mxCell>
        <mxCell id="FGZw0jKBI7hrl-vJfX9z-4" value="1. decrypt data with server private key&lt;br&gt;2. decrypt data(result 1) with client public key&amp;nbsp;&lt;br&gt;&amp;nbsp;" style="endArrow=classic;html=1;rounded=0;align=left;" edge="1" parent="FGZw0jKBI7hrl-vJfX9z-1">
          <mxGeometry y="-234" width="50" height="50" relative="1" as="geometry">
            <mxPoint x="45" y="200" as="sourcePoint" />
            <mxPoint x="45" y="240" as="targetPoint" />
            <Array as="points">
              <mxPoint x="25" y="220" />
            </Array>
            <mxPoint x="-69" y="-165" as="offset" />
          </mxGeometry>
        </mxCell>
        <mxCell id="FGZw0jKBI7hrl-vJfX9z-13" value="1. generate&amp;nbsp;public/private key&lt;br&gt;2. save private key, client public key" style="endArrow=classic;html=1;rounded=0;align=left;" edge="1" parent="FGZw0jKBI7hrl-vJfX9z-1">
          <mxGeometry y="-234" width="50" height="50" relative="1" as="geometry">
            <mxPoint x="45" y="120" as="sourcePoint" />
            <mxPoint x="45" y="160" as="targetPoint" />
            <Array as="points">
              <mxPoint x="25" y="140" />
            </Array>
            <mxPoint x="-69" y="-165" as="offset" />
          </mxGeometry>
        </mxCell>
        <mxCell id="FGZw0jKBI7hrl-vJfX9z-5" value="Client" style="shape=umlLifeline;perimeter=lifelinePerimeter;container=1;collapsible=0;recursiveResize=0;rounded=0;shadow=0;strokeWidth=1;fillColor=#dae8fc;strokeColor=#6c8ebf;" vertex="1" parent="1">
          <mxGeometry x="649" y="70" width="100" height="290" as="geometry" />
        </mxCell>
        <mxCell id="FGZw0jKBI7hrl-vJfX9z-6" value="" style="points=[];perimeter=orthogonalPerimeter;rounded=0;shadow=0;strokeWidth=1;fillColor=#dae8fc;strokeColor=#6c8ebf;" vertex="1" parent="FGZw0jKBI7hrl-vJfX9z-5">
          <mxGeometry x="45" y="80" width="10" height="170" as="geometry" />
        </mxCell>
        <mxCell id="FGZw0jKBI7hrl-vJfX9z-7" value="1. save server public key&lt;br&gt;2. encrypt data with client private key&lt;br&gt;3. encrypt data(2 result) with server public key" style="endArrow=classic;html=1;rounded=0;align=left;" edge="1" parent="FGZw0jKBI7hrl-vJfX9z-5">
          <mxGeometry y="14" width="50" height="50" relative="1" as="geometry">
            <mxPoint x="55" y="170" as="sourcePoint" />
            <mxPoint x="55" y="210" as="targetPoint" />
            <Array as="points">
              <mxPoint x="75" y="190" />
            </Array>
            <mxPoint x="4" y="-10" as="offset" />
          </mxGeometry>
        </mxCell>
        <mxCell id="FGZw0jKBI7hrl-vJfX9z-12" value="1. generate public/private key&lt;br&gt;2. save private key" style="endArrow=classic;html=1;rounded=0;align=left;" edge="1" parent="FGZw0jKBI7hrl-vJfX9z-5">
          <mxGeometry y="14" width="50" height="50" relative="1" as="geometry">
            <mxPoint x="55" y="80" as="sourcePoint" />
            <mxPoint x="55" y="120" as="targetPoint" />
            <Array as="points">
              <mxPoint x="75" y="100" />
            </Array>
            <mxPoint x="4" y="-10" as="offset" />
          </mxGeometry>
        </mxCell>
        <mxCell id="FGZw0jKBI7hrl-vJfX9z-8" value="request(client public key)" style="verticalAlign=bottom;endArrow=block;shadow=0;strokeWidth=1;exitX=-0.052;exitY=0.234;exitDx=0;exitDy=0;exitPerimeter=0;entryX=1.017;entryY=-0.007;entryDx=0;entryDy=0;entryPerimeter=0;" edge="1" parent="1" source="FGZw0jKBI7hrl-vJfX9z-6" target="FGZw0jKBI7hrl-vJfX9z-2">
          <mxGeometry relative="1" as="geometry">
            <mxPoint x="688" y="190" as="sourcePoint" />
            <mxPoint x="310" y="190" as="targetPoint" />
          </mxGeometry>
        </mxCell>
        <mxCell id="FGZw0jKBI7hrl-vJfX9z-9" value="response (server public key)" style="verticalAlign=bottom;endArrow=open;dashed=1;endSize=8;shadow=0;strokeWidth=1;entryX=-0.052;entryY=0.522;entryDx=0;entryDy=0;entryPerimeter=0;" edge="1" parent="1" target="FGZw0jKBI7hrl-vJfX9z-6">
          <mxGeometry relative="1" as="geometry">
            <mxPoint x="690" y="240" as="targetPoint" />
            <mxPoint x="318" y="240" as="sourcePoint" />
          </mxGeometry>
        </mxCell>
        <mxCell id="FGZw0jKBI7hrl-vJfX9z-14" value="request(encrypt data)" style="verticalAlign=bottom;endArrow=block;shadow=0;strokeWidth=1;entryX=1.155;entryY=0.682;entryDx=0;entryDy=0;entryPerimeter=0;exitX=-0.052;exitY=0.761;exitDx=0;exitDy=0;exitPerimeter=0;" edge="1" parent="1" source="FGZw0jKBI7hrl-vJfX9z-6" target="FGZw0jKBI7hrl-vJfX9z-2">
          <mxGeometry relative="1" as="geometry">
            <mxPoint x="688" y="280" as="sourcePoint" />
            <mxPoint x="328" y="280" as="targetPoint" />
          </mxGeometry>
        </mxCell>
        <mxCell id="FGZw0jKBI7hrl-vJfX9z-16" value="response result" style="verticalAlign=bottom;endArrow=open;dashed=1;endSize=8;shadow=0;strokeWidth=1;exitX=1.224;exitY=1.001;exitDx=0;exitDy=0;exitPerimeter=0;entryX=-0.052;entryY=1.001;entryDx=0;entryDy=0;entryPerimeter=0;" edge="1" parent="1" source="FGZw0jKBI7hrl-vJfX9z-2" target="FGZw0jKBI7hrl-vJfX9z-6">
          <mxGeometry relative="1" as="geometry">
            <mxPoint x="702.8800000000001" y="320" as="targetPoint" />
            <mxPoint x="320" y="320" as="sourcePoint" />
          </mxGeometry>
        </mxCell>
      </root>
    </mxGraphModel>
  </diagram>
</mxfile>
